<svg version="1.0" id="logo_mark" xmlns="http://www.w3.org/2000/svg" xmlns:xlink="http://www.w3.org/1999/xlink" x="0px" y="0px"
	 viewBox="0 0 455 255" style="enable-background:new 0 0 455 255;" xml:space="preserve">
<style type="text/css">
			.st0{fill:#ffffff;}
			.st1{fill:none;stroke:#292d32;stroke-width:3.5;}
			.st2{fill:none;stroke:#292d32;stroke-width:3.5;stroke-dasharray:4;}
			.st3{fill:#292d32;}
			.st4{fill:none;stroke:#292d32;stroke-width:3;}
			.st5{fill:none;stroke:#292d32;stroke-width:3.5;stroke-linecap:round;stroke-linejoin:round;}
			.st6{fill:none;stroke:#292d32;stroke-width:3.5;stroke-linejoin:bevel;}
			.st10{fill:#292d32;}
			.st11{fill:none;stroke:#292d32;stroke-width:3.5;stroke-miterlimit:10;}
		</style>
<g>
	<g>
		<polygon class="st10" points="88.4,214.7 88.3,166.3 85.4,165.6 65.7,206.8 54.4,206.8 34.6,165.6 31.7,166.3 31.7,214.7 
			16.4,214.7 16.4,138.9 36.3,138.9 60.1,186.9 83.7,138.9 103.6,138.9 103.6,214.7 		"/>
		<path class="st10" d="M102.1,140.4v72.7H89.9l-0.1-46.9l-5.7-1.3l-19.3,40.3h-9.5L35.9,165l-5.7,1.3v46.9H17.9v-72.7h17.5l22,44.4
			l2.7,5.4l2.7-5.4l21.9-44.4H102.1 M105.1,137.4H82.8l-22.7,46.1l-22.8-46.1H14.9v78.7h18.3v-49.9l20.2,42h13.3l20.1-42l0.1,49.9
			h18.2V137.4L105.1,137.4z"/>
	</g>
	<g>
		<path class="st10" d="M179.3,214.7l-5.4-13.9h-36.1l-5.5,13.9h-17.8l32.5-75.7h19.1l31.8,75.7H179.3z M142.8,188H169l-13-33.7
			L142.8,188z"/>
		<path class="st10" d="M165.1,140.4l30.5,72.7h-15.3l-4.6-12l-0.7-1.9h-2.1h-34h-2l-0.7,1.9l-4.8,12h-14.5l31.2-72.7H165.1
			 M140.6,189.5h4.4h21.8h4.4l-1.6-4.1l-10.8-28.1l-2.8-7.2l-2.8,7.2l-11,28.1L140.6,189.5 M167.1,137.4H146l-33.8,78.7h21.1
			l5.5-13.9h34l5.4,13.9h21.9L167.1,137.4L167.1,137.4z M145,186.5l11-28.1l10.8,28.1H145L145,186.5z"/>
	</g>
	<g>
		<path class="st10" d="M255.4,214.7L244,192.9h-17.7v21.8h-17.6v-75.7h33.9c10,0,17.8,2.3,23.2,6.9c5.4,4.6,8.1,10.9,8.1,19.2
			c0,5.6-1.1,10.5-3.4,14.6c-2.2,4-5.5,7.2-9.8,9.5l-1.4,0.8l15.8,24.8H255.4z M226.3,179.5h16.4c4.6,0,8.2-1.2,10.7-3.5
			c2.6-2.4,3.9-5.8,3.9-10.2c0-4.2-1.3-7.6-3.9-9.9c-2.6-2.3-6.2-3.5-10.7-3.5h-16.4V179.5z"/>
		<path class="st10" d="M242.6,140.4c9.6,0,17.1,2.2,22.3,6.5c5.1,4.3,7.5,10.2,7.5,18.1c0,5.4-1.1,10-3.2,13.9
			c-2.1,3.8-5.1,6.7-9.2,8.9l-2.9,1.5l1.8,2.8l13.5,21.1h-16L245.7,193l-0.8-1.6h-1.8h-0.4h-14.8h-3v3v18.8h-14.6v-72.7H242.6
			 M224.8,181h3h14.9c4.9,0,8.9-1.3,11.7-3.9c2.9-2.7,4.4-6.5,4.4-11.3c0-4.7-1.5-8.4-4.4-11c-2.8-2.6-6.8-3.9-11.7-3.9h-14.9h-3v3
			V178V181 M242.6,137.4h-35.4v78.7h20.6v-21.8h14.8h0.4l11.5,21.8h23.3l-16.4-25.7c4.6-2.4,8.1-5.7,10.4-10.1
			c2.4-4.3,3.6-9.4,3.6-15.3c0-8.8-2.9-15.6-8.6-20.4C261.1,139.8,253,137.4,242.6,137.4L242.6,137.4z M227.8,178v-24.2h14.9
			c4.2,0,7.4,1,9.7,3.1c2.3,2.1,3.4,5,3.4,8.8c0,4-1.1,7-3.4,9.1c-2.3,2.1-5.5,3.1-9.7,3.1H227.8L227.8,178z"/>
	</g>
	<g>
		<polygon class="st10" points="340.5,214.7 319.2,183.2 307.6,196 307.6,214.7 290.1,214.7 290.1,138.9 307.6,138.9 307.6,175.6 
			339.3,138.9 359.1,138.9 331.4,169.7 361.5,214.7 		"/>
		<path class="st10" d="M355.7,140.4L331,167.9l-1.6,1.7l1.3,1.9l27.9,41.6h-17.4l-19.8-29.2l-2.2-3.2l-2.6,2.9l-9.9,11l-0.8,0.9v1.1
			v16.5h-14.6v-72.7h14.6v31.2v8.1l5.3-6.1l28.6-33.1H355.7 M362.5,137.4h-23.8l-29.5,34.2v-34.2h-20.6v78.7h20.6v-19.5l9.9-11
			l20.7,30.6h24.6l-31-46.3L362.5,137.4L362.5,137.4z"/>
	</g>
</g>
<g>
	<polygon class="st10" points="378.1,136 374,143 376,148 381,150 393.9,136 	"/>
	<path class="st11" d="M383.2,147.6c-2.1,2.1-5.5,2.1-7.5,0l-0.2-0.2c-2.1-2.1-2.1-5.5,0-7.5l25-25c2.1-2.1,5.5-2.1,7.5,0l0.2,0.2
		c2.1,2.1,2.1,5.5,0,7.5L383.2,147.6z"/>
	<line class="st11" x1="388.4" y1="116.9" x2="407" y2="135.5"/>
	<line class="st11" x1="370.4" y1="152.8" x2="376.6" y2="146.6"/>
</g>
</svg>